<?xml version="1.0" encoding="UTF-8" standalone="no"?>
<svg xmlns:dc="http://purl.org/dc/elements/1.1/" xmlns:cc="http://creativecommons.org/ns#" xmlns:rdf="http://www.w3.org/1999/02/22-rdf-syntax-ns#" xmlns:svg="http://www.w3.org/2000/svg" xmlns="http://www.w3.org/2000/svg" id="svg4540" version="1.1" viewBox="0 0 23 23" height="23" width="23">
    <metadata id="metadata4546">
        <rdf:rdf>
            <cc:work rdf:about="">
                <dc:format>image/svg+xml</dc:format>
                <dc:type rdf:resource="http://purl.org/dc/dcmitype/StillImage"></dc:type>
                <dc:title></dc:title>
            </cc:work>
        </rdf:rdf>
    </metadata>
    <path style="fill:#b5b5b5;fill-opacity:1" id="path4538" d="M20 2c.542 0 1 .458 1 1v17c0 .542-.458 1-1 1H3c-.542 0-1-.458-1-1V3c0-.542.458-1 1-1h17m0-2H3C1.35 0 0 1.35 0 3v17c0 1.65 1.35 3 3 3h17c1.65 0 3-1.35 3-3V3c0-1.65-1.35-3-3-3z" fill="#c5c5c5"></path>
</svg>